<?xml version="1.0" encoding="utf-8"?>
<!-- Generator: Adobe Illustrator 27.3.1, SVG Export Plug-In . SVG Version: 6.00 Build 0)  -->
<svg version="1.1" id="Layer_1" xmlns="http://www.w3.org/2000/svg" xmlns:xlink="http://www.w3.org/1999/xlink" x="0px" y="0px"
	 viewBox="0 0 43 43" style="enable-background:new 0 0 43 43;" xml:space="preserve">
<g>
	<path d="M34,42.2l-0.8-0.5c-1-0.6-2.1-1.2-3.1-1.8c-0.1-0.1-0.3-0.1-0.5-0.1c-0.2,0-0.4,0-0.6,0.1c-1,0.6-2,1.1-3.1,1.7l-0.8,0.5
		h-0.4c-0.5-0.2-0.6-0.6-0.6-1.2c0-0.9,0-1.8,0-2.6l0-2.1l-17.9,0c-1.3,0-2.2-0.8-2.5-2c0-0.2,0-0.4,0-0.5l0-30.1
		c0-1.6,1-2.5,2.5-2.5h22.8c1.6,0,2.5,1,2.5,2.6v0.8c0,4.4,0,8.8,0,13.2c0,0.5,0.2,0.9,0.7,1.1c2.5,0.9,4.4,3.1,5,5.7
		c0.6,2.6-0.1,5.4-2,7.3c-0.3,0.3-0.4,0.7-0.4,1.1c0,1,0,2,0,3c0,1.7,0,3.4,0,5.1c0,0.7-0.2,1-0.6,1.2H34z M29.6,38
		c0.2,0,0.3,0,0.5,0.1c0.4,0.2,0.8,0.4,1.2,0.7l2.1,1.2v-6.5l-0.7,0.3c-1,0.4-2.1,0.6-3.1,0.6c-1,0-2.1-0.2-3.1-0.6l-0.7-0.3v6.5
		c0,0,1-0.5,1.1-0.6l0.5-0.3c0.5-0.3,1.1-0.6,1.6-0.9C29.3,38,29.4,38,29.6,38z M6.5,2.8C5.6,2.8,5.4,3,5.4,3.9v29.7
		c0,0.9,0.2,1.1,1.1,1.1h17.7l0-0.9c0-0.3,0-0.5,0-0.8c0-0.5-0.1-0.9-0.5-1.2c-2-2.1-2.7-5-1.8-7.8c0.8-2.8,3-4.8,5.9-5.5
		c0.4-0.1,0.8-0.1,1.2-0.2c0.2,0,0.4-0.1,0.6-0.1l0.4-0.1l0-14.2c0-0.9-0.2-1.1-1.1-1.1H6.5z M29.6,19.9c-3.5,0-6.4,2.9-6.4,6.4
		c0,3.5,2.8,6.4,6.4,6.4c3.6,0,6.5-2.9,6.5-6.4C36,22.8,33.1,19.9,29.6,19.9L29.6,19.9z"/>
	<path d="M11.2,9.4c-0.3,0-0.6-0.1-0.7-0.4c-0.1-0.2-0.2-0.5,0-0.8c0.2-0.3,0.4-0.5,0.8-0.5l8.7,0c0.8,0,1.6,0,2.4,0
		c0.4,0,0.8,0.3,0.8,0.7c0,0.4-0.2,0.8-0.6,0.9c-0.1,0-0.1,0-0.2,0l-6.4,0C14.4,9.4,12.8,9.4,11.2,9.4z"/>
	<path d="M11.3,14.6c-0.5,0-0.9-0.3-0.9-0.7c0-0.4,0.2-0.8,0.6-0.9c0.1,0,0.2,0,0.4,0l10.8,0c0.3,0,0.6,0.1,0.8,0.3
		c0.1,0.1,0.2,0.3,0.2,0.5c0,0.6-0.5,0.8-1,0.8l-5.2,0L11.3,14.6z"/>
	<path d="M11.3,19.9c-0.6,0-0.9-0.3-0.9-0.8c0-0.5,0.4-0.8,0.9-0.8h6.3c0.6,0,0.9,0.3,0.9,0.8c0,0.2-0.1,0.4-0.2,0.6
		c-0.2,0.2-0.4,0.3-0.7,0.3l-5.1,0L11.3,19.9z"/>
	<path d="M28.9,29.2c-0.1,0-0.3,0-0.4-0.1c-0.7-0.4-1.4-0.9-2.1-1.4c-0.3-0.2-0.4-0.7-0.2-1.1c0.2-0.2,0.4-0.4,0.7-0.4
		c0.1,0,0.3,0,0.4,0.1c0.2,0.1,0.4,0.3,0.6,0.4l0.7,0.5l0.8-1.2c0.4-0.6,0.9-1.3,1.3-1.9c0.1-0.1,0.2-0.3,0.3-0.4
		c0.1-0.1,0.3-0.1,0.4-0.1c0.2,0,0.4,0.1,0.5,0.2c0.3,0.3,0.4,0.7,0.1,1c-0.5,0.7-1,1.5-1.5,2.2L30,28.1c-0.1,0.2-0.3,0.4-0.4,0.6
		C29.4,29,29.2,29.2,28.9,29.2z"/>
</g>
</svg>
