<?xml version="1.0" encoding="utf-8"?>
<!-- Generator: Adobe Illustrator 27.3.1, SVG Export Plug-In . SVG Version: 6.00 Build 0)  -->
<svg version="1.1" id="Layer_1" xmlns="http://www.w3.org/2000/svg" xmlns:xlink="http://www.w3.org/1999/xlink" x="0px" y="0px"
	 viewBox="0 0 43 43" style="enable-background:new 0 0 43 43;" xml:space="preserve">
<g>
	<path d="M5.9,36.9c-2.6,0-4.2-1.9-4.5-3.6l0-0.1l0-0.1V5c0.2-0.8,0.4-1.5,0.9-2c0.9-1.1,2-1.7,3.4-1.7c3.4,0,6.9,0,10.3,0
		c3.3,0,6.5,0,9.8,0c2.4,0,4.2,1.9,4.3,4.3c0,2.5,0,4.9,0,7.4l0,2c0,0.5-0.3,0.9-0.8,0.9c-0.5,0-0.8-0.4-0.8-0.9l0-9.2
		c0-1.5-0.8-2.5-2.2-2.8c-0.2,0-0.5-0.1-0.7-0.1l-19.7,0C4.1,2.9,3,4.1,3,5.8v26.6c0,1.7,1.1,2.8,2.8,2.8l13.3,0c0.1,0,0.2,0,0.3,0
		c0.4,0.1,0.7,0.5,0.6,0.8c0,0.4-0.4,0.7-0.8,0.7c-0.1,0-0.4,0-0.4,0c-1.3,0-6.5,0-7.8,0C9.5,36.8,7.7,36.8,5.9,36.9L5.9,36.9z"/>
	<path d="M32,42.1c-1.8-0.8-3.2-1.7-4.5-2.8c-2.2-1.8-3.7-3.8-4.6-6c-0.4-1.1-0.6-2.3-0.7-3.5c0-2.1,0-4.2,0-6.3l0-0.8
		c0-0.5,0.2-0.7,0.6-0.9l1.4-0.5c2.5-0.9,5-1.7,7.5-2.5c0.1,0,0.3-0.1,0.4-0.1c0.1,0,0.2,0,0.3,0c2.8,0.9,5.7,1.9,8.5,2.9l0.4,0.1
		c0.5,0.2,0.6,0.4,0.6,0.9c0,0.7,0,1.4,0,2.1c0,1.4,0,2.9,0,4.3c0.1,3-0.9,5.6-3,7.9c-1.8,2-4,3.7-6.7,4.9l-0.1,0H32z M32.2,20.5
		c-0.1,0-0.3,0-0.4,0.1c-1.2,0.4-2.3,0.8-3.5,1.2c-1.3,0.4-2.5,0.9-3.8,1.3c-0.6,0.2-0.7,0.7-0.7,1c0,1.6,0,3.2,0,4.8l0,0.8
		c0,1.6,0.4,3,1.1,4.4c1.4,2.5,3.6,4.5,6.8,6.2c0.1,0.1,0.2,0.1,0.4,0.1c0.2,0,0.4,0,0.5-0.1c2.2-1.2,4-2.6,5.3-4.2
		c1.5-1.8,2.3-3.6,2.4-5.6c0.1-0.8,0-1.6,0-2.4c0-0.2,0-0.4,0-0.6l0-0.5l0-0.8c0-0.7,0-1.5,0-2.2c0-0.5-0.2-0.8-0.7-1
		c-1.2-0.4-5.9-2-7.2-2.4C32.5,20.5,32.3,20.5,32.2,20.5z"/>
	<path d="M7.6,16.9c-0.1,0-0.2,0-0.4,0c-0.4-0.1-0.7-0.4-0.7-0.9c0-0.4,0.4-0.7,0.8-0.7c0.7,0,1.4,0,2.1,0l14.3,0
		c0.3,0,0.6,0.1,0.8,0.3c0.1,0.2,0.2,0.4,0.1,0.7c-0.1,0.3-0.3,0.5-0.6,0.6c-0.1,0-0.3,0-0.4,0l-8,0C15.7,16.9,7.7,16.9,7.6,16.9z"
		/>
	<path d="M7.5,23.8c-0.3,0-0.6-0.1-0.7-0.3c-0.1-0.1-0.2-0.3-0.2-0.5c0-0.5,0.4-0.8,0.9-0.8l9.3,0c0.6,0,1,0.3,1,0.8
		c0,0.2-0.1,0.4-0.2,0.6c-0.2,0.2-0.4,0.3-0.7,0.3l-4.6,0L7.5,23.8z"/>
	<path d="M11.3,9.9L9,9.9c-0.5,0-1.1,0-1.6,0C7,9.9,6.7,9.6,6.6,9.2C6.5,8.9,6.7,8.5,7,8.4c0.1-0.1,0.3-0.1,0.4-0.1
		c1.4,0,2.9,0,4.3,0c1.1,0,2.3,0,3.4,0c0.4,0,0.7,0.2,0.8,0.6c0.1,0.3,0,0.7-0.3,0.8c-0.2,0.1-0.4,0.2-0.6,0.2c-0.6,0-1.2,0-1.8,0
		L11.3,9.9z"/>
	<path d="M31.8,34.3c-0.3,0-0.6-0.2-0.7-0.4l-0.3-0.3c-1-1-2-2-3-3c-0.3-0.3-0.3-0.5-0.2-0.9c0.1-0.3,0.3-0.5,0.7-0.5c0,0,0,0,0,0
		c0.2,0,0.4,0,0.7,0.3c0.5,0.5,2.3,2.3,2.3,2.3l0.4,0.4l1.4-1.9c1.1-1.4,2.1-2.8,3.2-4.2c0.1-0.2,0.4-0.4,0.7-0.4c0.1,0,0.1,0,0.2,0
		c0.2,0,0.5,0.1,0.6,0.4c0.2,0.3,0.2,0.6,0,0.9c-0.5,0.7-1,1.4-1.6,2.1c0,0-2.7,3.7-3.5,4.7C32.3,34,32.1,34.3,31.8,34.3z"/>
</g>
</svg>
