<?xml version="1.0" encoding="utf-8"?>
<!-- Generator: Adobe Illustrator 27.3.1, SVG Export Plug-In . SVG Version: 6.00 Build 0)  -->
<svg version="1.1" id="Layer_1" xmlns="http://www.w3.org/2000/svg" xmlns:xlink="http://www.w3.org/1999/xlink" x="0px" y="0px"
	 viewBox="0 0 43 43" style="enable-background:new 0 0 43 43;" xml:space="preserve">
<g>
	<path d="M14.2,42.6c-0.2,0-0.5-0.1-0.7-0.5L11.5,38c0-0.1-0.4-0.8-0.4-0.8l-5.2,1.4c-0.1,0-0.2,0-0.3,0c-0.2,0-0.4-0.1-0.5-0.3
		C5,38.3,4.9,38,5.1,37.6l2.7-5.9c0.5-1,0.9-2.1,1.4-3.1c0.1-0.2,0.2-0.8-0.2-1c-1-0.8-1.6-1.9-1.8-3.4c-0.2-1.5-0.7-3-1.4-4.3
		C5.3,18.9,5,18,5.1,17.2c0-0.8,0.2-1.6,0.7-2.6c0.6-1.1,1.1-2.2,1.3-3.6c0.1-0.5,0.2-1.1,0.3-1.6c0.3-1.3,1-2.2,2.1-2.9l0.1-0.1
		c0.1-0.1,0.2-0.1,0.2-0.1c1.6-0.7,3.1-1.8,4.4-3.2C15,2.3,15.9,1.8,17,1.6l1.3,0C19.3,1.9,20.2,2,21.2,2c0.9,0,1.9-0.1,2.8-0.3h1.4
		c1.5,0.2,2.6,1.2,3.5,2.2c1,1.1,2.2,1.7,3.2,2.2c1.7,0.8,2.7,2.1,2.9,3.7l0.1,0.4c0.1,0.4,0.1,0.8,0.2,1.1c0.2,0.8,0.5,1.5,0.7,2.2
		c0.1,0.3,0.3,0.7,0.5,1c0.1,0.2,0.2,0.4,0.3,0.6c0.7,1.4,0.7,2.8,0,4.1c-0.9,1.8-1.5,3.6-1.8,5.6c-0.2,1.1-0.7,2-1.6,2.7
		c-0.6,0.4-0.3,0.9-0.2,1.1l0.8,1.7c1.1,2.4,2.2,4.8,3.2,7.1c0.1,0.3,0.2,0.6,0.1,0.8c-0.1,0.4-0.5,0.5-0.7,0.5c-0.1,0-0.2,0-0.3,0
		c-0.9-0.2-4.2-1.2-4.2-1.2c-0.1,0-0.2-0.1-0.4-0.1l-0.6-0.1l-1.6,3.4c-0.2,0.5-0.4,0.9-0.7,1.4c-0.2,0.5-0.5,0.5-0.7,0.5
		c-0.2,0-0.5-0.1-0.7-0.5l-1.4-3.2c-0.9-1.9-1.7-3.8-2.6-5.7c-0.2-0.4-0.5-0.6-0.9-0.7c-0.4-0.1-0.9-0.1-1.3-0.1
		c-0.5,0-1,0.1-1.6,0.2c-0.3,0.1-0.6,0.4-0.7,0.6c-1,2.3-2.1,4.5-3.1,6.8l-1,2.1C14.7,42.4,14.5,42.6,14.2,42.6L14.2,42.6z
		 M11.6,35.6c0.2,0,0.4,0,0.7,0.6l1.8,3.9l3.3-7.3l-0.6-0.1c-0.9-0.2-1.8-0.6-2.6-1.4c-0.2-0.1-0.3-0.3-0.5-0.5
		c-0.3-0.3-0.5-0.5-0.8-0.8c-0.4-0.3-0.7-0.6-1.1-0.9l-1-0.8L7,36.8l1.2-0.3c0.1,0,0.2,0,0.3-0.1l2.7-0.7
		C11.3,35.7,11.5,35.6,11.6,35.6z M31.1,28.9c-0.1,0-0.2,0.1-0.3,0.1c-0.2,0.2-0.4,0.3-0.6,0.5c-0.5,0.4-1,0.8-1.5,1.2
		c-1,1-1.9,1.7-3.2,2l-0.6,0.1l3.4,7.3l1-2c0.3-0.7,0.6-1.3,0.9-2c0.2-0.4,0.5-0.5,0.7-0.5c0.1,0,0.2,0,0.3,0
		c0.3,0.1,3.2,0.9,3.2,0.9l1,0.3l-3.8-8.2L31.1,28.9z M21.3,30.9c0.4,0,0.7,0,1,0.1c0.5,0.1,1.1,0.2,1.6,0.2l0.8,0.1h0.1
		c1.2,0,2.1-0.7,2.7-1.4c1.2-1.3,2.5-2.2,4-2.9c0.1,0,0.2-0.1,0.3-0.2l0.1-0.1c1.1-0.5,1.7-1.4,1.8-2.6c0.3-2,0.8-3.7,1.7-5.3
		c0.7-1.1,0.6-2.4-0.1-3.7c-0.8-1.5-1.4-3-1.6-4.8c-0.2-1.4-0.8-2.3-1.8-2.8C30,6.7,28.4,5.6,27,4c-0.6-0.6-1.4-1-2.2-1
		c-0.2,0-0.5,0-0.7,0.1c-1.1,0.2-2.1,0.3-3,0.3c-0.8,0-1.6-0.1-2.4-0.3c-0.3-0.1-0.6-0.1-0.9-0.1c-1.1,0-2.1,0.5-2.9,1.4
		c-1,1.2-2.3,2.1-3.9,2.8C9.6,7.9,8.8,9,8.6,10.5c-0.2,1.6-0.7,3.2-1.5,4.6c-0.1,0.2-0.2,0.4-0.3,0.7L6.8,16c-0.3,0.8-0.3,1.6,0,2.5
		l0.1,0.1C7,19,7.2,19.4,7.4,19.8c0.6,1.2,1,2.4,1.1,3.6c0.2,1.9,1.1,3.2,2.8,3.9c1.2,0.5,2.2,1.3,3.3,2.4c0.3,0.4,0.7,0.7,1,1
		c0.5,0.4,1.2,0.7,1.9,0.7c0.1,0,0.2,0,0.2,0c0.3,0,0.7-0.1,1-0.1C19.7,31,20.5,30.9,21.3,30.9z"/>
	<path d="M15.8,24c-0.5,0-0.8-0.3-0.8-0.7c0-0.9-0.1-1.8,0-2.6c0.1-1.3,0.8-2.3,2-2.8l0.8-0.4L17.5,17c-0.9-1.4-1-3-0.6-5.1
		c0.4-1.9,2.2-3.3,4.3-3.3c0.2,0,0.3,0,0.5,0c2.1,0.2,3.8,2.1,3.8,4.3c0,0.2,0,0.4,0,0.6v0.2c0,1.8,0,1.8-0.8,3.4l-0.2,0.5l0.7,0.3
		c1.3,0.6,2,1.6,2,3.1c0,0.7,0,1.4,0,2.2l0,0.1c0,0.5-0.3,0.8-0.8,0.8l-5.2,0C19.5,24,17.6,24,15.8,24z M19.5,18.7
		c-0.6,0-1.2,0.2-1.8,0.5c-0.1,0-0.2,0.1-0.4,0.2c-0.1,0.1-0.1,0.1-0.2,0.2c-0.2,0.2-0.5,0.5-0.6,0.8c-0.1,0.4-0.1,0.8-0.1,1.2
		c0,0.2,0,0.3,0,0.5l0,0.5h9.5V22l0-0.4c0-0.3,0-0.6,0-1c-0.1-0.7-0.5-1.2-1.1-1.5l-0.3-0.1c-0.3-0.1-0.6-0.3-0.9-0.4
		c-0.2-0.1-0.3-0.1-0.5-0.1c-0.1,0-0.3,0-0.4,0.1c-0.5,0.1-1,0.3-1.4,0.3c-0.2,0-0.4,0-0.6-0.1C20.2,18.7,19.8,18.7,19.5,18.7z
		 M18.2,14.2c0,0.1,0,0.3,0,0.4c0,1.6,1.4,2.9,2.9,2.9c1.6,0,2.9-1.3,3-2.9c0-0.6,0-1.1,0-1.7c0-1.5-1.2-2.7-2.6-2.9
		c-0.1,0-0.2,0-0.3,0c-1.4,0-2.6,0.9-2.9,2.3c-0.1,0.3-0.1,0.6-0.1,0.9c0,0.1,0,0.3,0,0.4L18.2,14.2L18.2,14.2z"/>
</g>
</svg>
