<?xml version="1.0" encoding="utf-8"?>
<!-- Generator: Adobe Illustrator 27.3.1, SVG Export Plug-In . SVG Version: 6.00 Build 0)  -->
<svg version="1.1" id="Layer_1" xmlns="http://www.w3.org/2000/svg" xmlns:xlink="http://www.w3.org/1999/xlink" x="0px" y="0px"
	 viewBox="0 0 43 43" style="enable-background:new 0 0 43 43;" xml:space="preserve">
<g>
	<path d="M21.4,42.6c-0.2-0.1-0.4-0.3-0.5-0.5l-0.2-0.2c-0.5-0.6-1-1.2-1.7-1.7c-1.2-0.7-2.5-1.4-4.2-2.2l-1-0.5
		c-1.8-0.9-3.8-1.8-5.5-2.9c-2.1-1.5-3.5-3.1-4.2-5.1c-0.5-1.4-0.7-2.9-0.6-5c0.1-2,0.6-3.9,1.4-5.9C5.5,17,5.9,15.3,6,13.3
		c0.1-1.6-0.4-3.2-1.5-4.6C4.3,8.3,4,7.9,3.6,7.5c-0.4-0.4-0.4-0.8,0-1.2c1.7-1.7,3.5-3.5,5.2-5.2c0.2-0.2,0.4-0.3,0.6-0.3
		c0.2,0,0.4,0.1,0.6,0.3c1,0.8,2.1,1.6,3.7,2c0.7,0.1,1.3,0.2,1.9,0.2c1.9,0,3.6-0.7,5.2-2c0.3-0.3,0.6-0.4,0.8-0.4
		c0.2,0,0.4,0.1,0.7,0.4c1.4,1.3,3.3,2.1,5.2,2.1c1.7,0,3.4-0.6,4.7-1.6c0.1-0.1,0.3-0.2,0.4-0.3C32.9,1.2,33,1.1,33.2,1
		c0.2-0.1,0.3-0.2,0.5-0.2c0.2,0,0.3,0.1,0.5,0.2c1.8,1.8,3.6,3.6,5.4,5.4c0.4,0.4,0.2,0.9,0,1.1c-0.4,0.5-0.8,0.9-1.1,1.4
		c-1,1.4-1.4,3-1.2,5.1c0.2,1.7,0.6,3.3,1.3,4.9c0.8,2,1.3,4,1.3,6.4c0.1,3.8-1.4,6.7-4.5,9c-1.7,1.3-3.7,2.2-5.7,3.2l-0.4,0.2
		c-1.7,0.8-3.4,1.7-5,2.5c-0.8,0.5-1.5,1.1-2.1,2.1c-0.1,0.1-0.2,0.2-0.3,0.3c0,0-0.1,0.1-0.1,0.1H21.4z M5.2,7c0,0,0.7,0.9,0.8,1.1
		c1.1,1.7,1.7,3.3,1.6,5.1C7.4,15.4,7,17.3,6.3,19c-0.8,1.9-1.3,3.7-1.4,5.6c-0.3,3.5,1,6.4,3.7,8.5c1.4,1.1,3.1,1.9,4.6,2.6
		l1.3,0.6c1.5,0.7,3,1.4,4.4,2.2c0.6,0.3,1.1,0.7,1.7,1.1c0.3,0.2,0.5,0.4,0.8,0.6l0.3,0.2l0.7-0.6c0.3-0.3,0.6-0.5,1-0.8
		c1.4-0.9,2.9-1.6,4.4-2.3l0.9-0.4c1.9-0.9,3.9-1.8,5.6-3.1c2.3-1.7,3.6-3.7,3.9-6.1c0.3-2.3,0-4.6-0.8-6.7
		c-0.8-2.1-1.5-4.1-1.7-6.3c-0.2-2.3,0.3-4.3,1.5-5.9c0.1-0.2,0.5-0.7,0.5-0.7L37.9,7l-4.3-4.3l-0.3,0.2c-1.8,1.3-3.7,1.9-5.6,1.9
		c-1.9,0-3.8-0.7-5.8-1.9l-0.3-0.2l-0.3,0.2c-2,1.3-3.9,1.9-5.8,1.9c-1.9,0-3.8-0.6-5.6-1.9L9.6,2.7L5.2,7z"/>
	<path d="M27.1,28.7c-0.1,0-0.3,0-0.4-0.1L25.5,28c-1.1-0.6-2.2-1.1-3.3-1.7c-0.2-0.1-0.4-0.2-0.6-0.2c-0.2,0-0.4,0.1-0.6,0.2
		c-0.9,0.5-1.8,0.9-2.7,1.4l-1.7,0.9c-0.2,0.1-0.4,0.2-0.5,0.2c-0.1,0-0.3,0-0.4-0.2c-0.2-0.1-0.3-0.3-0.3-0.7l0.1-0.8l0.3-1.8
		l0.1-0.8c0.1-0.6,0.2-1.2,0.3-1.8c0-0.3-0.1-0.7-0.3-1c-1.2-1.2-2.4-2.4-3.6-3.5c-0.4-0.4-0.4-0.7-0.3-0.9c0.1-0.3,0.3-0.5,0.8-0.5
		c0.9-0.1,1.7-0.2,2.6-0.4c0.8-0.1,1.6-0.2,2.4-0.3c0.4-0.1,0.7-0.3,0.9-0.7c0.4-0.8,0.7-1.5,1.1-2.3c0.4-0.7,0.7-1.5,1.1-2.2
		c0.3-0.5,0.5-0.6,0.8-0.6c0.3,0,0.6,0.1,0.8,0.6c0.4,0.8,0.8,1.6,1.2,2.5c0.3,0.7,0.7,1.3,1,2c0.1,0.2,0.3,0.6,0.9,0.6
		c1,0.1,2.1,0.3,3.1,0.5l1.9,0.3c0.5,0.1,0.7,0.3,0.8,0.5c0.1,0.2,0.1,0.5-0.3,0.9l-1.1,1.1c-0.8,0.8-1.7,1.7-2.5,2.5
		c-0.3,0.3-0.4,0.7-0.4,1.1c0.2,1.3,0.5,2.6,0.7,4l0.2,1.1c0.1,0.5-0.1,0.7-0.3,0.8C27.4,28.7,27.3,28.7,27.1,28.7z M21.2,13.6
		L21.2,13.6l-0.1,0.2L20,16c-0.6,1.3-0.6,1.3-2,1.5c-0.6,0.1-1.2,0.2-1.8,0.3L14.4,18l0.8,0.8c0.1,0.1,0.1,0.2,0.2,0.2l0.6,0.6
		c0.5,0.5,1,1,1.5,1.4c0.4,0.4,0.5,0.7,0.4,1.3c-0.2,0.7-0.3,1.5-0.4,2.3l-0.3,2l1.8-1c0.7-0.4,1.4-0.7,2.1-1.1
		c0.2-0.1,0.4-0.2,0.6-0.2c0.2,0,0.4,0.1,0.6,0.2c0.7,0.4,1.4,0.7,2.1,1.1l1.4,0.7l0.3-0.6l0-0.2l-0.2-0.9c-0.1-0.8-0.3-1.5-0.4-2.3
		c-0.1-0.5,0-0.8,0.3-1.2c0.5-0.5,1.1-1,1.6-1.5l0.6-0.6c0.1-0.1,0.1-0.1,0.2-0.2l0.6-0.7l-0.9-0.2c-0.1,0-0.1,0-0.2,0l-0.9-0.1
		c-0.7-0.1-1.5-0.2-2.2-0.3c-0.5-0.1-0.7-0.3-0.9-0.7c-0.3-0.7-0.7-1.4-1-2l-0.4-0.7c0-0.1-0.1-0.2-0.1-0.2l-0.4-0.6L21.2,13.6z"/>
</g>
</svg>
